<svg id="Layer_1" data-name="Layer 1" xmlns="http://www.w3.org/2000/svg" viewBox="0 0 512 512"><defs><style>.cls-1{fill:#3eb38a;}.cls-2{fill:#2d8460;}.cls-3{fill:#dae2f2;}.cls-4{opacity:0.04;}</style></defs><title>user-chat-bubble-flat</title><path class="cls-1" d="M380.71,72.21v105a72.41,72.41,0,0,1-52.51,69.45v48.71a6.48,6.48,0,0,1-4.07,6,5.5,5.5,0,0,1-2.49.53A6.61,6.61,0,0,1,317,300l-50.54-50.61h-168a72.25,72.25,0,0,1-72.21-72.21v-105A72.25,72.25,0,0,1,98.45,0H308.5A72.25,72.25,0,0,1,380.71,72.21Z"/><path class="cls-2" d="M295.38,105H111.58a6.56,6.56,0,1,1,0-13.13H295.38a6.56,6.56,0,1,1,0,13.13Z"/><path class="cls-2" d="M190.35,157.54H111.58a6.56,6.56,0,1,1,0-13.13h78.77a6.56,6.56,0,0,1,0,13.13Z"/><path class="cls-3" d="M481.07,500.45A27.62,27.62,0,0,1,458.49,512H342.31a27.62,27.62,0,0,1-22.58-11.55,24.65,24.65,0,0,1-3.22-22.78c9.06-25.4,29.8-44.64,55.27-53a52.51,52.51,0,1,1,57.24,0c25.47,8.34,46.21,27.57,55.27,53A24.65,24.65,0,0,1,481.07,500.45Z"/><g class="cls-4"><path d="M481.07,500.45A27.62,27.62,0,0,1,458.49,512H400.4V328.21A52.48,52.48,0,0,1,429,424.7c25.47,8.34,46.21,27.57,55.27,53A24.65,24.65,0,0,1,481.07,500.45Z"/></g></svg>